<svg width="79" height="80" viewBox="0 0 79 80" fill="none" xmlns="http://www.w3.org/2000/svg">
<path d="M22.3696 1.21676H9.44946V11.1557H21.1335C22.0332 11.1557 23.0009 11.3485 23.7516 11.8445C24.9406 12.6302 25.3242 14.0754 25.3242 15.5005V45.4774C25.3242 46.8233 25.0389 48.0799 23.9489 48.8695C23.1362 49.4583 21.9729 49.7724 20.9693 49.7724H13.8073C13.2555 49.7724 12.8081 50.2198 12.8081 50.7716V58.4583C12.8081 59.0106 13.2558 59.4583 13.8081 59.4583H23.5836C25.7835 59.4583 28.0122 59.3051 30.0748 58.54C30.6227 58.3368 31.1292 58.1128 31.5971 57.8559C34.7429 56.1288 35.0606 51.9774 35.0606 48.3886V11.629C35.0606 9.34821 35.0334 6.9027 33.6451 5.09314C32.9968 4.24818 32.1547 3.5621 31.0683 2.9512C28.4556 1.48201 25.3671 1.21676 22.3696 1.21676Z" fill="#4A4A4A" stroke="#4A4A4A"/>
<path d="M56.4825 1H75C76.6569 1 78 2.34315 78 4V7.7221C78 9.37896 76.6569 10.7221 75 10.7221H57.5023C56.5322 10.7221 55.5046 10.9108 54.7773 11.5526C53.6252 12.5693 53.2047 14.1366 53.2047 15.6732V45.6786C53.2047 46.8945 53.4432 48.0391 54.58 48.4705C55.4276 48.7921 56.505 49.1219 57.4116 49.1219H65.184C65.7363 49.1219 66.184 49.5696 66.184 50.1219V58.5947C66.184 59.0716 65.7974 59.4583 65.3204 59.4583H59.6393C54.3209 59.4583 48.0518 60.0464 44.3522 56.2257C43.0009 54.8303 42.8177 52.8237 42.8177 50.8813V8.19509C43.4286 5.74213 44.8677 4.13656 47.163 2.86045C49.9699 1.29983 53.2709 1 56.4825 1Z" fill="#4A4A4A" stroke="#4A4A4A"/>
<path d="M61.7695 15.6005H71.5692V32.4998C71.5692 33.6043 70.6737 34.4998 69.5692 34.4998H63.7695C62.665 34.4998 61.7695 33.6043 61.7695 32.4998V15.6005Z" fill="#4A4A4A"/>
<path d="M0 29.11V19.3103H16.8992C18.0038 19.3103 18.8992 20.2058 18.8992 21.3103V27.11C18.8992 28.2145 18.0038 29.11 16.8992 29.11H0Z" fill="#4A4A4A"/>
<path d="M0 3.21677C0 2.1122 0.895431 1.21676 2 1.21676H6.50974V11.4004H2C0.895432 11.4004 0 10.5049 0 9.40037V3.21677Z" fill="#4A4A4A"/>
<path d="M45.8582 73.4829C46.4105 73.4829 46.8582 73.0352 46.8582 72.4829C46.8582 71.9306 46.4105 71.4829 45.8582 71.4829V72.4829V73.4829ZM45.8582 76.6351C46.4105 76.6351 46.8582 76.1874 46.8582 75.6351C46.8582 75.0828 46.4105 74.6351 45.8582 74.6351V75.6351V76.6351ZM45.8582 79.7872C46.4105 79.7872 46.8582 79.3395 46.8582 78.7872C46.8582 78.2349 46.4105 77.7872 45.8582 77.7872V78.7872V79.7872ZM52.9754 71.4829C52.4231 71.4829 51.9754 71.9306 51.9754 72.4829C51.9754 73.0352 52.4231 73.4829 52.9754 73.4829V72.4829V71.4829ZM55.0284 72.4829H56.0284V71.4829H55.0284V72.4829ZM55.0284 78.7872V79.7872H56.0284V78.7872H55.0284ZM52.9754 77.7872C52.4231 77.7872 51.9754 78.2349 51.9754 78.7872C51.9754 79.3395 52.4231 79.7872 52.9754 79.7872V78.7872V77.7872ZM59.9784 73.4829C60.5307 73.4829 60.9784 73.0352 60.9784 72.4829C60.9784 71.9306 60.5307 71.4829 59.9784 71.4829V72.4829V73.4829ZM58.0432 72.4829V71.4829H57.0432V72.4829H58.0432ZM58.0432 78.7872H57.0432V79.7872H58.0432V78.7872ZM59.9784 79.7872C60.5307 79.7872 60.9784 79.3395 60.9784 78.7872C60.9784 78.2349 60.5307 77.7872 59.9784 77.7872V78.7872V79.7872ZM6 72.4829V73.4829H10.9149V72.4829V71.4829H6V72.4829ZM11.9149 73.4829H10.9149V74.6351H11.9149H12.9149V73.4829H11.9149ZM10.9149 75.6351V74.6351H7.57711V75.6351V76.6351H10.9149V75.6351ZM6.57711 76.6351H5.57711V79.8887H6.57711H7.57711V76.6351H6.57711ZM19.7164 71.4583H18.7164V79.8887H19.7164H20.7164V71.4583H19.7164ZM27.1073 79.8887H28.1073V73.4829H27.1073H26.1073V79.8887H27.1073ZM28.1073 72.4829V73.4829H31.4452V72.4829V71.4829H28.1073V72.4829ZM32.4452 73.4829H31.4452V79.8887H32.4452H33.4452V73.4829H32.4452ZM45.8582 72.4829V71.4829H40.2729V72.4829V73.4829H45.8582V72.4829ZM39.9729 72.7829H38.9729V75.6351H39.9729H40.9729V72.7829H39.9729ZM39.9729 75.6351V76.6351H45.8582V75.6351V74.6351H39.9729V75.6351ZM39.9729 75.6351H38.9729V78.4872H39.9729H40.9729V75.6351H39.9729ZM40.2729 78.7872V79.7872H45.8582V78.7872V77.7872H40.2729V78.7872ZM52.9754 72.4829V73.4829H55.0284V72.4829V71.4829H52.9754V72.4829ZM55.0284 72.4829H54.0284V78.7872H55.0284H56.0284V72.4829H55.0284ZM55.0284 78.7872V77.7872H52.9754V78.7872V79.7872H55.0284V78.7872ZM72 72.4829V71.4829H66.6622V72.4829V73.4829H72V72.4829ZM69.3995 73.4048H68.3995V79.8887H69.3995H70.3995V73.4048H69.3995ZM59.9784 72.4829V71.4829H58.0432V72.4829V73.4829H59.9784V72.4829ZM58.0432 72.4829H57.0432V78.7872H58.0432H59.0432V72.4829H58.0432ZM58.0432 78.7872V79.7872H59.9784V78.7872V77.7872H58.0432V78.7872ZM39.9729 78.4872H38.9729C38.9729 79.2052 39.5549 79.7872 40.2729 79.7872V78.7872V77.7872C40.6595 77.7872 40.9729 78.1006 40.9729 78.4872H39.9729ZM31.4452 72.4829V73.4829H32.4452H33.4452C33.4452 72.3783 32.5497 71.4829 31.4452 71.4829V72.4829ZM27.1073 73.4829H28.1073V73.4829V72.4829V71.4829C27.0027 71.4829 26.1073 72.3783 26.1073 73.4829H27.1073ZM7.57711 75.6351V74.6351C6.47254 74.6351 5.57711 75.5305 5.57711 76.6351H6.57711H7.57711H7.57711V75.6351ZM11.9149 74.6351H10.9149V74.6351V75.6351V76.6351C12.0195 76.6351 12.9149 75.7396 12.9149 74.6351H11.9149ZM40.2729 72.4829V71.4829C39.5549 71.4829 38.9729 72.0649 38.9729 72.7829H39.9729H40.9729C40.9729 73.1695 40.6595 73.4829 40.2729 73.4829V72.4829ZM10.9149 72.4829V73.4829H10.9149H11.9149H12.9149C12.9149 72.3783 12.0195 71.4829 10.9149 71.4829V72.4829Z" fill="#4A4A4A"/>
</svg>
